<svg width="681.68251953125px" height="186.81248779296874px" xmlns="http://www.w3.org/2000/svg" viewBox="-90.84125976562501 -18.40624389648437 681.68251953125 186.81248779296874" style="background: rgb(253, 253, 253);" preserveAspectRatio="xMidYMid"><defs><filter id="editing-hover" x="-100%" y="-100%" width="300%" height="300%"><feFlood flood-color="#bbcedd" result="flood"></feFlood><feComposite operator="in" in2="SourceAlpha" in="flood" result="shadow"></feComposite><feOffset dx="-2.6" dy="-1.3" in="SourceGraphic" result="offset-1"></feOffset><feOffset dx="2.6" dy="1.3" in="shadow" result="offset-2"></feOffset><feMerge><feMergeNode in="offset-2"></feMergeNode><feMergeNode in="offset-1"></feMergeNode></feMerge></filter></defs><g filter="url(#editing-hover)"><g transform="translate(6.890010356903076, 113.77999877929688)"><path d="M40.63-28.47L40.63-28.47L40.58-41.58L40.58-41.58Q40.58-44.26 39.72-45.22L39.72-45.22L39.72-45.22Q38.14-46.99 33.88-46.99L33.88-46.99L26.32-46.99L26.32-46.99Q20.38-46.99 19.81-43.64L19.81-43.64L19.81-43.64Q19.67-42.68 19.67-41.58L19.67-41.58L19.62-27.23L19.62-27.23Q19.62-8.66 21.53-3.97L21.53-3.97L21.53-3.97Q22.30-2.15 23.93 0L23.93 0L5.98 0L5.98 0Q7.51-3.64 7.78-6.08L7.78-6.08L7.78-6.08Q8.04-8.52 8.33-12.11L8.33-12.11L8.33-12.11Q8.85-19.62 8.85-29.29L8.85-29.29L8.85-29.29Q8.85-38.95 8.80-42.61L8.80-42.61L8.80-42.61Q8.76-46.27 8.71-49.77L8.71-49.77L8.71-49.77Q8.37-64.26 7.80-67.16L7.80-67.16L7.80-67.16Q7.23-70.05 6.84-71.06L6.84-71.06L5.98-73.21L23.93-73.21L23.93-73.21Q20.48-69.38 20.10-62.88L20.10-62.88L20.10-62.88Q19.95-60.92 19.95-58.76L19.95-58.76L19.95-58.76Q19.95-56.61 20.36-55.39L20.36-55.39L20.36-55.39Q20.77-54.17 21.72-53.59L21.72-53.59L21.72-53.59Q23.02-52.73 27.80-52.73L27.80-52.73L32.35-52.73L32.35-52.73Q37.23-52.73 38.38-53.45L38.38-53.45L38.38-53.45Q40.29-54.69 40.29-58.86L40.29-58.86L40.29-58.86Q40.29-69.05 36.27-73.21L36.27-73.21L54.22-73.21L54.22-73.21Q52.78-70.05 52.47-67.38L52.47-67.38L52.47-67.38Q52.16-64.70 52.01-62.23L52.01-62.23L52.01-62.23Q51.87-59.77 51.73-56.51L51.73-56.51L51.73-56.51Q51.58-53.26 51.49-49.77L51.49-49.77L51.49-49.77Q51.34-41.63 51.34-35.03L51.34-35.03L51.34-35.03Q51.34-8.18 53.35-2.15L53.35-2.15L53.35-2.15Q53.69-1.15 54.22 0L54.22 0L36.27 0L36.27 0Q38.66-3.21 39.19-5.53L39.19-5.53L39.19-5.53Q39.72-7.85 40.00-11.01L40.00-11.01L40.00-11.01Q40.63-17.08 40.63-28.47ZM100.58-25.55L100.58-25.55L100.44-16.37L100.44-16.37Q100.44-7.80 102.02-4.69L102.02-4.69L102.02-4.69Q102.98-2.82 104.27-1.82L104.27-1.82L106.52 0L92.64 0L91.16-5.55L91.16-5.55Q85.75 0.96 75.75 0.96L75.75 0.96L75.75 0.96Q70.05 0.96 66.56-2.87L66.56-2.87L66.56-2.87Q63.50-6.32 63.50-11.01L63.50-11.01L63.50-11.01Q63.50-15.70 65.72-19.19L65.72-19.19L65.72-19.19Q67.95-22.68 71.59-24.98L71.59-24.98L71.59-24.98Q78.76-29.43 89.63-29.62L89.63-29.62L89.63-30.15L89.63-30.15Q89.63-41.77 86.04-43.78L86.04-43.78L86.04-43.78Q84.75-44.50 82.71-44.50L82.71-44.50L82.71-44.50Q80.68-44.50 78.67-43.16L78.67-43.16L78.67-43.16Q76.66-41.82 75.03-39.72L75.03-39.72L75.03-39.72Q71.78-35.46 70.39-29.67L70.39-29.67L70.39-29.67Q66.13-32.20 66.13-39.38L66.13-39.38L66.13-39.38Q66.13-42.30 66.90-45.94L66.90-45.94L66.90-45.94Q68.71-45.94 70.34-46.46L70.34-46.46L74.03-47.61L74.03-47.61Q79.43-49.29 84.60-49.29L84.60-49.29L84.60-49.29Q89.77-49.29 92.86-47.76L92.86-47.76L92.86-47.76Q95.94-46.22 97.67-43.21L97.67-43.21L97.67-43.21Q100.58-38.09 100.58-25.55ZM73.83-10.05L73.83-10.05Q73.83-7.08 75.20-5.46L75.20-5.46L75.20-5.46Q76.56-3.83 78.62-3.83L78.62-3.83L78.62-3.83Q80.68-3.83 82.59-4.90L82.59-4.90L82.59-4.90Q84.51-5.98 86.04-7.85L86.04-7.85L86.04-7.85Q89.63-12.11 89.63-17.85L89.63-17.85L89.63-24.93L89.63-24.93Q82.93-24.31 78.57-20.48L78.57-20.48L78.57-20.48Q73.83-16.37 73.83-10.05L73.83-10.05ZM127.86 0L114.13 0L114.13 0Q116.33-7.56 116.33-25.98L116.33-25.98L116.33-25.98Q116.33-39.09 114.03-43.88L114.03-43.88L114.03-43.88Q113.46-45.08 112.74-46.13L112.74-46.13L111.16-48.33L127.76-48.33L127.76-48.33Q127.05-45.94 126.81-43.83L126.81-43.83L126.42-40.39L126.42-40.39Q132.21-49.29 141.16-49.29L141.16-49.29L141.16-49.29Q146.95-49.29 150.21-44.79L150.21-44.79L150.21-44.79Q153.36-40.39 153.36-32.87L153.36-32.87L153.36-27.75L153.36-27.75Q153.36-14.59 153.60-11.68L153.60-11.68L153.60-11.68Q153.84-8.76 153.99-7.23L153.99-7.23L153.99-7.23Q154.13-5.69 154.32-4.50L154.32-4.50L154.32-4.50Q154.66-2.25 155.33 0L155.33 0L141.31 0L141.31 0Q143.51-7.56 143.51-25.98L143.51-25.98L143.51-25.98Q143.51-33.35 142.57-36.08L142.57-36.08L142.57-36.08Q141.64-38.81 140.35-39.98L140.35-39.98L140.35-39.98Q139.06-41.15 136.95-41.15L136.95-41.15L136.95-41.15Q133.08-41.15 129.92-38.09L129.92-38.09L129.92-38.09Q127.19-35.46 125.75-31.39L125.75-31.39L125.75-31.39Q125.66-30.10 125.66-28.71L125.66-28.71L125.66-25.98L125.66-25.98Q125.66-7.56 127.86 0L127.86 0ZM203.03-25.55L203.03-25.55L202.89-16.37L202.89-16.37Q202.89-7.80 204.47-4.69L204.47-4.69L204.47-4.69Q205.43-2.82 206.72-1.82L206.72-1.82L208.97 0L195.09 0L193.61-5.55L193.61-5.55Q188.20 0.96 178.20 0.96L178.20 0.96L178.20 0.96Q172.50 0.96 169.01-2.87L169.01-2.87L169.01-2.87Q165.95-6.32 165.95-11.01L165.95-11.01L165.95-11.01Q165.95-15.70 168.17-19.19L168.17-19.19L168.17-19.19Q170.40-22.68 174.04-24.98L174.04-24.98L174.04-24.98Q181.21-29.43 192.08-29.62L192.08-29.62L192.08-30.15L192.08-30.15Q192.08-41.77 188.49-43.78L188.49-43.78L188.49-43.78Q187.20-44.50 185.16-44.50L185.16-44.50L185.16-44.50Q183.13-44.50 181.12-43.16L181.12-43.16L181.12-43.16Q179.11-41.82 177.48-39.72L177.48-39.72L177.48-39.72Q174.23-35.46 172.84-29.67L172.84-29.67L172.84-29.67Q168.58-32.20 168.58-39.38L168.58-39.38L168.58-39.38Q168.58-42.30 169.35-45.94L169.35-45.94L169.35-45.94Q171.17-45.94 172.79-46.46L172.79-46.46L176.48-47.61L176.48-47.61Q181.88-49.29 187.05-49.29L187.05-49.29L187.05-49.29Q192.22-49.29 195.31-47.76L195.31-47.76L195.31-47.76Q198.39-46.22 200.12-43.21L200.12-43.21L200.12-43.21Q203.03-38.09 203.03-25.55ZM176.29-10.05L176.29-10.05Q176.29-7.08 177.65-5.46L177.65-5.46L177.65-5.46Q179.01-3.83 181.07-3.83L181.07-3.83L181.07-3.83Q183.13-3.83 185.04-4.90L185.04-4.90L185.04-4.90Q186.96-5.98 188.49-7.85L188.49-7.85L188.49-7.85Q192.08-12.11 192.08-17.85L192.08-17.85L192.08-24.93L192.08-24.93Q185.38-24.31 181.02-20.48L181.02-20.48L181.02-20.48Q176.29-16.37 176.29-10.05L176.29-10.05ZM230.31 0L216.58 0L216.58 0Q218.78-7.56 218.78-25.98L218.78-25.98L218.78-25.98Q218.78-39.09 216.48-43.88L216.48-43.88L216.48-43.88Q215.91-45.08 215.19-46.13L215.19-46.13L213.61-48.33L230.21-48.33L230.21-48.33Q229.50-45.94 229.26-43.83L229.26-43.83L228.87-40.39L228.87-40.39Q234.66-49.29 243.61-49.29L243.61-49.29L243.61-49.29Q249.40-49.29 252.66-44.79L252.66-44.79L252.66-44.79Q255.81-40.39 255.81-32.87L255.81-32.87L255.81-27.75L255.81-27.75Q255.81-14.59 256.05-11.68L256.05-11.68L256.05-11.68Q256.29-8.76 256.44-7.23L256.44-7.23L256.44-7.23Q256.58-5.69 256.77-4.50L256.77-4.50L256.77-4.50Q257.11-2.25 257.78 0L257.78 0L243.76 0L243.76 0Q245.96-7.56 245.96-25.98L245.96-25.98L245.96-25.98Q245.96-33.35 245.02-36.08L245.02-36.08L245.02-36.08Q244.09-38.81 242.80-39.98L242.80-39.98L242.80-39.98Q241.51-41.15 239.40-41.15L239.40-41.15L239.40-41.15Q235.53-41.15 232.37-38.09L232.37-38.09L232.37-38.09Q229.64-35.46 228.20-31.39L228.20-31.39L228.20-31.39Q228.11-30.10 228.11-28.71L228.11-28.71L228.11-25.98L228.11-25.98Q228.11-7.56 230.31 0L230.31 0ZM301.70-23.40L301.70-23.40L301.66-29.62L301.66-29.62Q301.66-35.03 300.60-36.82L300.60-36.82L300.60-36.82Q299.55-38.62 298.40-39.45L298.40-39.45L298.40-39.45Q297.25-40.29 295.58-41.15L295.58-41.15L316.59-41.15L316.59-41.15Q313.57-38.38 312.76-34.07L312.76-34.07L312.76-34.07Q311.99-29.96 311.99-21.34L311.99-21.34L311.99-21.34Q311.99-4.59 314.00 0.96L314.00 0.96L314.00 0.96Q313.33 1.00 312.66 1.00L312.66 1.00L311.37 1.00L311.37 1.00Q290.32 1.00 279.45-12.54L279.45-12.54L279.45-12.54Q269.07-25.50 269.07-49.33L269.07-49.33L269.07-49.33Q269.07-61.11 276.01-67.38L276.01-67.38L276.01-67.38Q282.42-73.21 293.19-73.21L293.19-73.21L301.61-73.12L301.61-73.12Q308.26-73.12 310.89-74.74L310.89-74.74L310.89-74.74Q311.99-75.46 312.76-76.56L312.76-76.56L312.76-76.56Q313.95-74.27 313.95-70.25L313.95-70.25L313.95-70.25Q313.95-66.23 313.71-63.76L313.71-63.76L313.71-63.76Q313.48-61.30 313.00-58.95L313.00-58.95L313.00-58.95Q311.99-53.98 309.89-51.20L309.89-51.20L309.89-51.20Q308.07-60.77 305.34-64.41L305.34-64.41L305.34-64.41Q302.28-68.43 295.77-68.43L295.77-68.43L295.77-68.43Q287.54-68.43 284.14-61.82L284.14-61.82L284.14-61.82Q281.70-56.99 281.70-47.18L281.70-47.18L281.70-47.18Q281.70-33.74 285.87-21.39L285.87-21.39L285.87-21.39Q288.78-12.73 293.14-9.09L293.14-9.09L293.14-9.09Q295.39-7.18 297.80-7.18L297.80-7.18L297.80-7.18Q300.22-7.18 300.89-8.57L300.89-8.57L300.89-8.57Q301.56-9.95 301.61-13.30L301.61-13.30L301.61-13.30Q301.70-19.91 301.70-23.40ZM339.55 0L325.44 0L325.44 0Q327.64-7.56 327.64-25.98L327.64-25.98L327.64-25.98Q327.64-39.09 325.53-43.88L325.53-43.88L325.53-43.88Q324.67-45.84 322.47-48.33L322.47-48.33L339.46-48.33L339.46-48.33Q338.60-45.32 338.07-40.05L338.07-40.05L338.07-40.05Q342.57-45.70 350.61-48.04L350.61-48.04L350.61-48.04Q354.05-49.05 355.63-51.20L355.63-51.20L355.63-51.20Q357.21-47.42 357.21-44.69L357.21-44.69L357.21-44.69Q357.21-41.97 356.92-39.65L356.92-39.65L356.92-39.65Q356.64-37.32 356.06-35.12L356.06-35.12L356.06-35.12Q354.82-30.39 352.76-27.75L352.76-27.75L352.76-27.75Q350.99-37.08 347.26-38.66L347.26-38.66L347.26-38.66Q342.95-40.53 338.84-33.59L338.84-33.59L338.84-33.59Q337.98-32.16 337.40-30.53L337.40-30.53L337.40-30.53Q337.35-29.43 337.35-28.28L337.35-28.28L337.35-28.28Q337.35-27.13 337.35-25.98L337.35-25.98L337.35-25.98Q337.35-7.56 339.55 0L339.55 0ZM399.23-25.55L399.23-25.55L399.08-16.37L399.08-16.37Q399.08-7.80 400.66-4.69L400.66-4.69L400.66-4.69Q401.62-2.82 402.91-1.82L402.91-1.82L405.16 0L391.28 0L389.80-5.55L389.80-5.55Q384.39 0.96 374.39 0.96L374.39 0.96L374.39 0.96Q368.70 0.96 365.20-2.87L365.20-2.87L365.20-2.87Q362.14-6.32 362.14-11.01L362.14-11.01L362.14-11.01Q362.14-15.70 364.37-19.19L364.37-19.19L364.37-19.19Q366.59-22.68 370.23-24.98L370.23-24.98L370.23-24.98Q377.41-29.43 388.27-29.62L388.27-29.62L388.27-30.15L388.27-30.15Q388.27-41.77 384.68-43.78L384.68-43.78L384.68-43.78Q383.39-44.50 381.35-44.50L381.35-44.50L381.35-44.50Q379.32-44.50 377.31-43.16L377.31-43.16L377.31-43.16Q375.30-41.82 373.67-39.72L373.67-39.72L373.67-39.72Q370.42-35.46 369.03-29.67L369.03-29.67L369.03-29.67Q364.77-32.20 364.77-39.38L364.77-39.38L364.77-39.38Q364.77-42.30 365.54-45.94L365.54-45.94L365.54-45.94Q367.36-45.94 368.98-46.46L368.98-46.46L372.67-47.61L372.67-47.61Q378.08-49.29 383.24-49.29L383.24-49.29L383.24-49.29Q388.41-49.29 391.50-47.76L391.50-47.76L391.50-47.76Q394.58-46.22 396.31-43.21L396.31-43.21L396.31-43.21Q399.23-38.09 399.23-25.55ZM372.48-10.05L372.48-10.05Q372.48-7.08 373.84-5.46L373.84-5.46L373.84-5.46Q375.20-3.83 377.26-3.83L377.26-3.83L377.26-3.83Q379.32-3.83 381.23-4.90L381.23-4.90L381.23-4.90Q383.15-5.98 384.68-7.85L384.68-7.85L384.68-7.85Q388.27-12.11 388.27-17.85L388.27-17.85L388.27-24.93L388.27-24.93Q381.57-24.31 377.21-20.48L377.21-20.48L377.21-20.48Q372.48-16.37 372.48-10.05L372.48-10.05ZM427.70 0L413.96 0L413.96 0Q416.17-7.56 416.17-25.98L416.17-25.98L416.17-25.98Q416.17-39.09 413.87-43.88L413.87-43.88L413.87-43.88Q413.29-45.08 412.58-46.13L412.58-46.13L411.00-48.33L427.60-48.33L427.60-48.33Q426.88-45.51 426.64-43.83L426.64-43.83L426.31-40.96L426.31-40.96Q431.86-49.29 440.45-49.29L440.45-49.29L440.45-49.29Q449.04-49.29 451.58-39.96L451.58-39.96L451.58-39.96Q455.36-46.42 461.58-48.52L461.58-48.52L461.58-48.52Q463.78-49.29 466.53-49.29L466.53-49.29L466.53-49.29Q469.28-49.29 471.51-48.11L471.51-48.11L471.51-48.11Q473.73-46.94 475.26-44.79L475.26-44.79L475.26-44.79Q478.28-40.43 478.28-32.87L478.28-32.87L478.28-27.75L478.28-27.75Q478.28-13.11 478.68-9.40L478.68-9.40L478.68-9.40Q479.09-5.69 479.28-4.50L479.28-4.50L479.28-4.50Q479.57-2.39 480.24 0L480.24 0L466.12 0L466.12 0Q468.23-7.23 468.23-25.98L468.23-25.98L468.23-25.98Q468.23-33.59 467.46-36.20L467.46-36.20L467.46-36.20Q466.70-38.81 465.48-39.98L465.48-39.98L465.48-39.98Q464.26-41.15 462.15-41.15L462.15-41.15L462.15-41.15Q455.98-41.15 452.34-33.88L452.34-33.88L452.34-27.75L452.34-27.75Q452.34-13.11 452.75-9.40L452.75-9.40L452.75-9.40Q453.15-5.69 453.35-4.50L453.35-4.50L453.35-4.50Q453.63-2.39 454.30 0L454.30 0L440.19 0L440.19 0Q442.34-7.37 442.34-25.98L442.34-25.98L442.34-25.98Q442.34-33.78 441.57-36.30L441.57-36.30L441.57-36.30Q440.81-38.81 439.61-39.98L439.61-39.98L439.61-39.98Q438.42-41.15 436.33-41.15L436.33-41.15L436.33-41.15Q434.25-41.15 432.58-40.34L432.58-40.34L432.58-40.34Q430.90-39.53 429.56-38.19L429.56-38.19L429.56-38.19Q427.03-35.70 425.59-31.77L425.59-31.77L425.59-31.77Q425.50-30.39 425.50-28.90L425.50-28.90L425.50-25.98L425.50-25.98Q425.50-7.56 427.70 0L427.70 0ZM450.57-28.81L450.76-29.67L450.57-28.81Z" fill="#85a2b6"></path></g></g><style>text {
  font-size: 64px;
  font-family: Arial Black;
  dominant-baseline: central;
  text-anchor: middle;
}</style></svg>